<?xml version="1.0" standalone="no"?>
<!DOCTYPE svg PUBLIC "-//W3C//DTD SVG 20010904//EN"
 "http://www.w3.org/TR/2001/REC-SVG-20010904/DTD/svg10.dtd">
<svg version="1.0" xmlns="http://www.w3.org/2000/svg"
 width="720.000000pt" height="720.000000pt" viewBox="0 0 720.000000 720.000000"
 preserveAspectRatio="xMidYMid meet">
<metadata>
Created by potrace 1.14, written by Peter Selinger 2001-2017
</metadata>
<g transform="translate(0.000000,720.000000) scale(0.100000,-0.100000)"
fill="#000000" stroke="none">
<path d="M5150 6262 c-14 -2 -50 -11 -80 -20 -30 -8 -59 -17 -65 -18 -26 -5
-145 -83 -188 -123 -40 -38 -77 -87 -82 -111 -10 -46 -122 -341 -134 -353 -6
-6 -28 -4 -62 7 -28 10 -56 13 -60 9 -5 -5 -4 -25 2 -46 8 -31 16 -38 50 -47
32 -9 39 -15 34 -28 -4 -9 -13 -35 -21 -57 -7 -22 -31 -92 -55 -155 -49 -135
-161 -488 -160 -505 0 -8 -80 -238 -90 -257 -11 -21 24 -58 55 -58 12 0 16 -4
11 -9 -10 -9 -204 -121 -211 -121 -9 0 -127 -80 -213 -143 -139 -102 -197
-155 -464 -418 -383 -379 -490 -463 -759 -596 -44 -22 -267 -98 -313 -107 -11
-2 -27 -7 -35 -10 -8 -3 -26 -8 -40 -11 -14 -2 -86 -21 -160 -40 -74 -20 -146
-37 -160 -40 -14 -2 -38 -8 -54 -14 -16 -6 -49 -16 -75 -22 -114 -25 -413
-125 -566 -188 -11 -5 -49 -21 -85 -36 -256 -107 -522 -269 -678 -412 -136
-125 -274 -283 -350 -402 -83 -130 -133 -285 -133 -408 1 -120 0 -114 52 -231
29 -66 140 -189 160 -177 5 4 9 -1 9 -9 0 -14 129 -86 156 -86 7 0 34 7 59 15
l46 16 77 -38 c84 -41 153 -48 197 -21 6 3 27 9 48 13 28 6 42 3 55 -8 19 -18
100 -55 135 -63 45 -11 166 -4 213 12 103 34 205 116 268 217 31 48 49 57 127
62 42 3 108 23 127 38 9 7 34 -1 87 -28 60 -31 88 -39 147 -43 169 -10 304 62
422 226 21 28 42 53 47 53 12 2 16 3 69 19 25 7 79 14 121 16 94 2 167 23 241
68 31 18 88 44 125 55 37 12 75 25 83 28 20 8 20 8 55 17 28 7 152 44 239 70
33 10 47 9 82 -3 92 -33 240 26 376 149 10 9 69 31 133 49 104 30 118 32 147
20 18 -7 71 -14 118 -14 74 -1 110 2 195 19 26 6 102 33 141 51 40 19 121 91
129 114 4 12 29 26 78 40 39 12 84 26 100 31 15 5 27 6 27 3 0 -3 6 -1 13 4
21 17 66 24 86 14 32 -18 154 -38 213 -35 140 6 267 63 307 137 12 23 15 24
149 23 128 0 312 9 357 18 11 2 47 7 80 11 32 3 62 8 65 10 3 1 27 6 53 9 27
4 104 25 170 47 67 22 131 42 142 43 33 4 189 57 290 97 17 7 32 13 35 13 68
14 233 162 282 253 74 135 69 310 -12 450 -44 76 -126 137 -243 179 -67 24
-97 66 -275 387 -146 263 -345 475 -577 614 -67 40 -262 129 -300 137 -5 1
-37 10 -70 20 -33 10 -71 20 -85 22 -50 9 -54 13 -34 35 18 20 18 21 -26 57
-73 59 -268 260 -315 327 -11 15 -29 39 -41 54 -45 57 -143 237 -195 358 l-17
41 28 39 c78 107 87 304 17 381 -26 29 -8 29 29 0 43 -34 60 -57 93 -124 30
-61 35 -78 52 -169 8 -47 7 -160 -2 -195 -5 -18 2 -18 68 -1 51 12 52 14 58
55 4 24 4 60 1 82 -12 75 -17 97 -22 106 -3 4 -7 17 -9 28 -7 36 -55 122 -95
170 -81 96 -187 148 -297 145 -49 -1 -51 0 -37 16 20 22 117 74 174 92 179 59
347 35 436 -61 19 -20 34 -35 35 -32 9 41 4 114 -9 126 -51 51 -217 90 -322
76z m-283 -355 c4 -23 7 -48 6 -54 -2 -41 -4 -46 -8 -41 -7 6 -12 33 -20 101
-7 60 12 55 22 -6z m90 -47 c6 -19 9 -57 7 -83 -3 -54 -31 -147 -44 -147 -14
0 -24 68 -12 83 14 18 36 88 37 117 0 14 -3 38 -7 54 -5 18 -4 26 1 20 5 -5
13 -25 18 -44z"/>
<path d="M5850 4853 c-51 -17 -100 -63 -100 -92 0 -24 13 -33 54 -37 109 -11
135 -17 169 -34 21 -11 51 -34 67 -50 48 -49 110 -37 110 21 0 87 -52 155
-140 184 -72 24 -108 26 -160 8z"/>
</g>
</svg>
